<svg xmlns="http://www.w3.org/2000/svg" viewBox="0 0 64 64" id="critical-thinking"><path d="M47 33.75a4.765 4.765 0 0 0-2.668-4.379c0-.04 0-.081 0-.121a4.743 4.743 0 0 0-2.884-4.472A4.383 4.383 0 0 0 37.333 21.5 4.561 4.561 0 0 0 33 26.25v16.5a5.025 5.025 0 0 0 .813 2.75H30.187A5.025 5.025 0 0 0 31 42.75V26.25a4.561 4.561 0 0 0-4.333-4.75 4.383 4.383 0 0 0-4.116 3.278 4.743 4.743 0 0 0-2.884 4.472c0 .04 0 .081 0 .121A4.765 4.765 0 0 0 17 33.75 4.916 4.916 0 0 0 18.813 37.6a5.058 5.058 0 0 0-.48 2.151 4.565 4.565 0 0 0 4.311 4.75A4.613 4.613 0 0 0 24.5 46.849a2.982 2.982 0 0 0 .763 4.087 2.508 2.508 0 0 0-.262 1.1v.924a2.541 2.541 0 0 0 2 2.478V56.5a5 5 0 0 0 10 0V55.44a2.541 2.541 0 0 0 2-2.478v-.924a2.508 2.508 0 0 0-.262-1.1 2.982 2.982 0 0 0 .763-4.087A4.613 4.613 0 0 0 41.356 44.5a4.565 4.565 0 0 0 4.311-4.75 5.072 5.072 0 0 0-.479-2.151A4.918 4.918 0 0 0 47 33.75zM37 49.5H27a1 1 0 0 1 0-2H37a1 1 0 0 1 0 2zM20.333 39.75a3 3 0 0 1 .641-1.867c.013-.017.014-.038.026-.055 1.221-1.749 2.974-1.7 4.15.2l1.7-1.054A4.61 4.61 0 0 0 23 34.5a4.17 4.17 0 0 0-3.06 1.438A2.92 2.92 0 0 1 19 33.75a2.824 2.824 0 0 1 1.23-2.409A4.066 4.066 0 0 0 23 32.5a4.61 4.61 0 0 0 3.85-2.473l-1.7-1.054c-.956 1.54-2.294 1.859-3.418.991 0-.031.006-.06 0-.092a3.179 3.179 0 0 1-.065-.622A2.806 2.806 0 0 1 22.973 26.8a3.655 3.655 0 0 0 2.107.7h.044a3.478 3.478 0 0 0 2.643-1.286l-1.534-1.283A1.486 1.486 0 0 1 25.1 25.5a1.918 1.918 0 0 1-.625-.149A2.394 2.394 0 0 1 26.667 23.5 2.57 2.57 0 0 1 29 26.25v16.5a2.57 2.57 0 0 1-2.333 2.75 2.393 2.393 0 0 1-2.2-1.869 1.526 1.526 0 0 1 1.76.507l1.54-1.276A3.571 3.571 0 0 0 25 41.5a3.488 3.488 0 0 0-2.4.993A2.58 2.58 0 0 1 20.333 39.75zM32 59.5a3 3 0 0 1-3-3v-1h6v1A3 3 0 0 1 32 59.5zm5-6.538a.539.539 0 0 1-.539.538H27.539A.539.539 0 0 1 27 52.962v-.924a.539.539 0 0 1 .539-.538h8.922a.539.539 0 0 1 .539.538zm7.06-17.024A4.17 4.17 0 0 0 41 34.5a4.61 4.61 0 0 0-3.85 2.473l1.7 1.054c1.176-1.894 2.929-1.948 4.15-.2.012.017.013.038.026.055a3 3 0 0 1 .641 1.867A2.58 2.58 0 0 1 41.4 42.493 3.488 3.488 0 0 0 39 41.5a3.571 3.571 0 0 0-2.77 1.362l1.54 1.276a1.526 1.526 0 0 1 1.76-.507 2.393 2.393 0 0 1-2.2 1.869A2.57 2.57 0 0 1 35 42.75V26.25a2.57 2.57 0 0 1 2.333-2.75 2.4 2.4 0 0 1 2.2 1.854 1.887 1.887 0 0 1-.626.146 1.486 1.486 0 0 1-1.135-.569l-1.534 1.283A3.478 3.478 0 0 0 38.876 27.5h.044a3.658 3.658 0 0 0 2.107-.7 2.806 2.806 0 0 1 1.306 2.453 3.179 3.179 0 0 1-.065.622c-.006.032 0 .061 0 .092-1.124.868-2.462.549-3.418-.991l-1.7 1.054A4.61 4.61 0 0 0 41 32.5a4.066 4.066 0 0 0 2.77-1.159A2.824 2.824 0 0 1 45 33.75 2.92 2.92 0 0 1 44.06 35.938zM18 22.5a1 1 0 0 1-1-1H15a3 3 0 0 0 3 3zM46 22.5v2a3 3 0 0 0 3-3H47A1 1 0 0 1 46 22.5zM18.167 18.5a.733.733 0 0 1 1.251-.519 1 1 0 0 0 1.414 0l1.65-1.649a1 1 0 0 0 0-1.414A.733.733 0 0 1 23 13.667a1 1 0 0 0 1-1V11.4a5 5 0 0 0 3.915-4.057 2.985 2.985 0 1 0-2.031-.062 2.99 2.99 0 0 1-2.431 2.174A.981.981 0 0 0 23 9.333a.733.733 0 0 1-.518-1.251 1 1 0 0 0 0-1.414l-1.65-1.649a1 1 0 0 0-1.414 0A.733.733 0 0 1 18.167 4.5a1 1 0 0 0-1-1H14.833a1 1 0 0 0-1 1 .733.733 0 0 1-1.251.519 1 1 0 0 0-1.414 0L9.518 6.668a1 1 0 0 0 0 1.414A.733.733 0 0 1 9 9.333a.981.981 0 0 0-.453.121A2.99 2.99 0 0 1 6.116 7.28a3.014 3.014 0 1 0-2.031.062A5 5 0 0 0 8 11.4v.2a5 5 0 0 0-3.915 4.057 2.985 2.985 0 1 0 2.031.062 2.99 2.99 0 0 1 2.431-2.174A.981.981 0 0 0 9 13.667a.733.733 0 0 1 .518 1.251 1 1 0 0 0 0 1.414l1.65 1.649a1 1 0 0 0 1.414 0 .733.733 0 0 1 1.251.519 1 1 0 0 0 1 1h2.334A1 1 0 0 0 18.167 18.5zM27 3.5a1 1 0 1 1-1 1A1 1 0 0 1 27 3.5zM5 3.5a1 1 0 1 1-1 1A1 1 0 0 1 5 3.5zm0 16a1 1 0 1 1 1-1A1 1 0 0 1 5 19.5zm11.349-2h-.7A2.755 2.755 0 0 0 12 15.989L11.51 15.5A2.752 2.752 0 0 0 10 11.85v-.7A2.752 2.752 0 0 0 11.51 7.5L12 7.011A2.755 2.755 0 0 0 15.651 5.5h.7A2.755 2.755 0 0 0 20 7.011l.494.493A2.752 2.752 0 0 0 22 11.15v.7A2.752 2.752 0 0 0 20.49 15.5L20 15.989A2.755 2.755 0 0 0 16.349 17.5z"></path><path d="M19 11.5a3 3 0 1 0-3 3A3 3 0 0 0 19 11.5zm-3 1a1 1 0 1 1 1-1A1 1 0 0 1 16 12.5zM59.915 7.342a2.985 2.985 0 1 0-2.031-.062 2.99 2.99 0 0 1-2.431 2.174A.981.981 0 0 0 55 9.333a.733.733 0 0 1-.518-1.251 1 1 0 0 0 0-1.414l-1.65-1.649a1 1 0 0 0-1.414 0A.733.733 0 0 1 50.167 4.5a1 1 0 0 0-1-1H46.833a1 1 0 0 0-1 1 .733.733 0 0 1-1.251.519 1 1 0 0 0-1.414 0l-1.65 1.649a1 1 0 0 0 0 1.414A.733.733 0 0 1 41 9.333a.981.981 0 0 0-.453.121A2.99 2.99 0 0 1 38.116 7.28a3.014 3.014 0 1 0-2.031.062A5 5 0 0 0 40 11.4v1.268a1 1 0 0 0 1 1 .733.733 0 0 1 .518 1.251 1 1 0 0 0 0 1.414l1.65 1.649a1 1 0 0 0 1.414 0 .733.733 0 0 1 1.251.519 1 1 0 0 0 1 1h2.334a1 1 0 0 0 1-1 .733.733 0 0 1 1.251-.519 1 1 0 0 0 1.414 0l1.65-1.649a1 1 0 0 0 0-1.414A.733.733 0 0 1 55 13.667a.981.981 0 0 0 .453-.121 2.99 2.99 0 0 1 2.431 2.174 3.014 3.014 0 1 0 2.031-.062A5 5 0 0 0 56 11.6v-.2A5 5 0 0 0 59.915 7.342zM59 3.5a1 1 0 1 1-1 1A1 1 0 0 1 59 3.5zm-22 0a1 1 0 1 1-1 1A1 1 0 0 1 37 3.5zm17 8.35A2.752 2.752 0 0 0 52.49 15.5L52 15.989A2.755 2.755 0 0 0 48.349 17.5h-.7A2.755 2.755 0 0 0 44 15.989L43.51 15.5A2.752 2.752 0 0 0 42 11.85v-.7A2.752 2.752 0 0 0 43.51 7.5L44 7.011A2.755 2.755 0 0 0 47.651 5.5h.7A2.755 2.755 0 0 0 52 7.011l.494.493A2.752 2.752 0 0 0 54 11.15zm5 7.65a1 1 0 1 1 1-1A1 1 0 0 1 59 19.5z"></path><path d="M48,8.5a3,3,0,1,0,3,3A3,3,0,0,0,48,8.5Zm0,4a1,1,0,1,1,1-1A1,1,0,0,1,48,12.5Z"></path></svg>