<svg xmlns="http://www.w3.org/2000/svg" enable-background="new 0 0 64 64" viewBox="0 0 64 64" id="ethics"><path d="M55.382,16.647C56.339,16.145,57,15.153,57,14c0-1.654-1.346-3-3-3c-1.302,0-2.402,0.839-2.816,2h-8.235
		C42.442,7.402,37.728,3,32,3S21.558,7.402,21.051,13h-8.235c-0.414-1.161-1.514-2-2.816-2c-1.654,0-3,1.346-3,3
		c0,1.153,0.661,2.145,1.618,2.647L1.086,33.594C1.029,33.722,1,33.86,1,34c0,4.962,4.038,9,9,9s9-4.038,9-9
		c0-0.14-0.029-0.278-0.086-0.406l-7.532-16.947c0.665-0.349,1.179-0.932,1.434-1.647h8.235c0.274,3.021,1.77,5.692,3.993,7.512
		L27.902,53H12c-2.206,0-4,1.794-4,4s1.794,4,4,4h40c2.206,0,4-1.794,4-4s-1.794-4-4-4H36.098l2.858-30.488
		c2.223-1.82,3.719-4.492,3.993-7.512h8.235c0.255,0.715,0.769,1.298,1.434,1.647l-7.532,16.947C45.029,33.722,45,33.86,45,34
		c0,4.962,4.038,9,9,9s9-4.038,9-9c0-0.14-0.029-0.278-0.086-0.406L55.382,16.647z M54,13c0.551,0,1,0.449,1,1s-0.449,1-1,1
		s-1-0.449-1-1S53.449,13,54,13z M10,13c0.551,0,1,0.449,1,1s-0.449,1-1,1s-1-0.449-1-1S9.449,13,10,13z M10,18.462L16.461,33H3.539
		L10,18.462z M10,41c-3.52,0-6.437-2.613-6.925-6h13.849C16.437,38.387,13.52,41,10,41z M27.18,23.872
		c1.174,0.575,2.459,0.953,3.82,1.077V53h-1.089L27.18,23.872z M54,57c0,1.103-0.897,2-2,2H12c-1.103,0-2-0.897-2-2s0.897-2,2-2h40
		C53.103,55,54,55.897,54,57z M34.089,53H33V24.949c1.361-0.123,2.647-0.501,3.82-1.077L34.089,53z M32,23c-4.962,0-9-4.038-9-9
		s4.038-9,9-9s9,4.038,9,9S36.962,23,32,23z M60.461,33H47.539L54,18.462L60.461,33z M54,41c-3.52,0-6.437-2.613-6.925-6h13.849
		C60.437,38.387,57.52,41,54,41z"></path><path d="M33,10.142V7h-2v3.142c-1.72,0.447-3,2-3,3.858c0,2.206,1.794,4,4,4s4-1.794,4-4C36,12.142,34.72,10.589,33,10.142z M32,16
		c-1.103,0-2-0.897-2-2s0.897-2,2-2s2,0.897,2,2S33.103,16,32,16z"></path></svg>