<?xml version="1.0" encoding="UTF-8"?>
<svg version="1.1" viewBox="0 0 888 908" width="1280" height="1280" xmlns="http://www.w3.org/2000/svg">
<path transform="translate(0)" d="m0 0h888v908h-888z"/>
<path transform="translate(426,111)" d="m0 0h16l34 2 30 5 28 7 24 8 21 9 19 9 17 10 17 11 19 14 15 13 10 9 16 16 9 11 11 13 14 20 12 20 13 25 11 27 8 25 6 25 4 25 2 19v51l-4 31-6 28-8 27-9 24-10 21-11 20-16 24-9 12-11 13-7 8-9 10-8 8-8 7-12 10-14 11-21 14-20 12-23 11-25 10-19 6-29 7-25 4-22 2h-45l-29-3-25-5-27-7-25-9-24-11-23-12-19-12-19-14-14-12-13-12-17-17-7-8-12-15-10-14-14-22-15-29-10-24-8-24-6-24-5-31-2-20v-44l3-28 5-27 8-29 7-19 8-19 8-17 14-24 13-19 16-20 11-12 6-7h2l2-4 13-12 11-10 11-8 12-9 17-11 23-13 17-8 28-11 24-7 27-6 20-3z" fill="#FCFCFC"/>
<path transform="translate(549,463)" d="m0 0h3l-1 5-18 18-8 7-13 11-10 8-25 16-14 8-19 9-16 6-13 4-23 5-14 2h-38l-20-3-17-4-30-10-10-6-9-17-11-27-9-20v-3l7 1 29 8 31 7 32 5h12l3 2 29 1h28l27-1 1-1 20-2 36-7 20-6 26-9z" fill="#03ABF2"/>
<path transform="translate(442,300)" d="m0 0 10 2 36 13 23 12 14 8 12 8 13 10 10 9 8 7 10 10 7 8 7 9 8 11 13 24 8 19 5 15 5 24 2 17v12l-7 11-11 13-13 17-9 11-4 3-3-8-7-30-6-23-6-17-8-22-6-13-5-12-8-16-11-21-10-16-8-12-9-13-7-9-11-13-12-13-6-6v-2h-2l-16-16-4-2-3-5z" fill="#2D3295"/>
<path transform="translate(439,218)" d="m0 0 8 2 44 16 16 6-5 5-16 9-11 7-6 4-11 8-9 6-10 8-9 7-5 4-5 2v2l-8 7-9 9-8 7-10 10-14 16-10 12-11 14-8 11-12 19-10 18-8 16-14 30-3-1v-52l6-36 6-22 8-23 7-15 6-11 5-9 12-16 10-13 18-18 13-10 10-7 17-10 23-11z" fill="#F01F2A"/>
<path transform="translate(428,565)" d="m0 0 16 1 17 6 11 8 7 8 8 14 3 9v19l-4 12-9 16-10 9-17 9-16 3-17-3-12-6-8-6-9-10-7-14-3-11v-15l3-12 8-14 11-12 10-6 11-4z" fill="#03ABF2"/>
<path transform="translate(245,258)" d="m0 0h11l16 4 13 7 10 10 5 7 5 15 1 7v12l-2 10-5 12-4 6-4 5-5 5-8 5-12 5-10 2h-12l-12-3-16-8-11-11-6-12-4-12-1-5v-11l5-16 6-12 9-9 8-6 13-5z" fill="#F01F2A"/>
<path transform="translate(607,259)" d="m0 0h21l15 5 9 6 8 7 8 13 4 12 1 5v14l-5 16-5 10-8 9-13 8-10 4-4 1h-23l-15-6-10-7-8-9-5-8-3-9-2-10v-13l4-15 6-11 9-10 11-7 11-4z" fill="#2E3295"/>
<path transform="translate(549,699)" d="m0 0h9l5 5 4 5 2 10-3 7-5 5-9 2-8-3-5-6-3-8 1-8 5-6z" fill="#070717"/>
<path transform="translate(408,724)" d="m0 0h8l20 2h22l2 1-1 4-1 1h-8v25l-1 2h-5l-1-26-9-2-1-3-4 3-15-1-1 7 12 1 4 2v4h-11l-6-1-1 8 17 1 1 5-1 1h-10l-13-2-1-1 1-13 2-17z" fill="#08091B"/>
<path transform="translate(377,717)" d="m0 0 13 2 6 4 4 5v8l-4 11-5 4-2 1h-7l-12-4 1-10 5-20z" fill="#070819"/>
<path transform="translate(663,608)" d="m0 0 4 1 20 20v3l-4 1-8-7-8-8 2 4 9 14-1 5-5 1-14-8h-2l13 12-1 5-4-1-8-7-12-12 1-4 2-3 7 1 14 7-10-17 2-4z" fill="#060614"/>
<path transform="translate(521,712)" d="m0 0h6l4 5 1 5-3 7 5 5 6 4v2l-7 1-12-8h-4l1 7 1 8h-5l-4-8-6-20 1-3z" fill="#060715"/>
<path transform="translate(609,660)" d="m0 0h6l5 5 1 6v4l12 5v4h-8l-6-2h-9l2 5 5 7-2 4-4-1-10-13-7-9 1-4 8-7z" fill="#070717"/>
<path transform="translate(259,651)" d="m0 0 5 1 10 9 2 3v6l-5 6-2 1-9-1-6-5-4 2-4 6-4-2-1-4 12-14z" fill="#060716"/>
<path transform="translate(489,721)" d="m0 0h7l4 4 1 2v9l-4 4-10 3 1 12-5 1-2-2-5-26 1-5z" fill="#070717"/>
<path transform="translate(356,709)" d="m0 0 5 1 2 4v32l-5-1-2-3-1-6-8-3-5 1-3 3-5-1 1-4 11-12 7-8z" fill="#08091C"/>
<path transform="translate(290,672)" d="m0 0 4 4-1 11-5 21-4 2-2-2v-10l-8-5-10 2-2-4 4-4 11-7 10-7z" fill="#070717"/>
<path transform="translate(580,681)" d="m0 0h8l3 2 1 4-12 1-5 5 1 7 3 5v2l8 1 5-3 3-3 1-5-6 3h-5l1-5 7-4 5 1 4 7v5l-6 7-7 3-7 1-6-3-6-7-2-5v-8l6-8z" fill="#060716"/>
<path transform="translate(629,642)" d="m0 0 10 3 16 8 6 4-1 3h-6l-5-2-8 8 1 9-3 3h-2l-8-21-3-10 1-4z" fill="#060716"/>
<path transform="translate(213,609)" d="m0 0h5l8 8 6 8-1 4-6-4-8-8-4 1 1 5 8 9-2 4-4-1-7-9-3-1-4 4 2 5 7 7 1 7-5-3-14-14v-3l8-7 11-10z" fill="#070817"/>
<path transform="translate(236,630)" d="m0 0 4 2 1 4-2 9 7-2h8l1 4-16 5-1 5-2 13-4-1-2-2 1-10 1-4-9 3h-5l-3-3v-2l16-5h2l2-15z" fill="#060716"/>
<path transform="translate(322,695)" d="m0 0 9 1 5 5 3 5v5h-4l-5-8-2-1h-6l-5 5-2 5 1 7 3 3 7-1 5-1 1 4-4 4-7 1-7-3-5-6-1-2v-7l5-10 6-5z" fill="#08081A"/>
<path transform="translate(551,704)" d="m0 0 6 2 4 5 2 5-1 7-5 4h-7l-5-5-2-4v-8l5-5z" fill="#FDFDFD"/>
<path transform="translate(436,726)" d="m0 0h22l2 1-1 4-1 1h-8v25l-1 2h-5l-1-26-9-2-1-4z" fill="#090A20"/>
<path transform="translate(381,724)" d="m0 0h7l5 4v11l-4 6-1 1h-9l-2-2 1-8z" fill="#FDFDFD"/>
<path transform="translate(261,658)" d="m0 0 4 1 4 4v6l-2 2-7-1-4-3 2-5z" fill="#FDFDFD"/>
<path transform="translate(609,666)" d="m0 0 5 1 1 1v5l-7 6-4-1-3-3 2-4z" fill="#FDFDFD"/>
<path transform="translate(521,717)" d="m0 0 4 2v5l-4 3-7 2-2-2v-7z" fill="#FDFDFD"/>
<path transform="translate(485,727)" d="m0 0h9l2 2-1 5-6 3-5-1-1-8z" fill="#FDFDFD"/>
<path transform="translate(633,649)" d="m0 0 5 2 6 3v3l-4 3-4-1-3-9z" fill="#FDFDFD"/>
<path transform="translate(286,680)" d="m0 0h2l-2 10-1 1h-5l-2-4z" fill="#FDFDFD"/>
<path transform="translate(356,716)" d="m0 0h1l-1 13-2 1-5-3 2-4z" fill="#FDFDFD"/>
</svg>
